<?xml version="1.0" encoding="utf-8"?>
<!-- Generator: Adobe Illustrator 20.0.0, SVG Export Plug-In . SVG Version: 6.00 Build 0)  -->
<!DOCTYPE svg PUBLIC "-//W3C//DTD SVG 1.1//EN" "http://www.w3.org/Graphics/SVG/1.1/DTD/svg11.dtd">
<svg version="1.1" id="Layer_1" xmlns="http://www.w3.org/2000/svg" xmlns:xlink="http://www.w3.org/1999/xlink" x="0px" y="0px"
	 viewBox="0 0 738.4 334.6" enable-background="new 0 0 738.4 334.6" xml:space="preserve">
<g>
	<g>
		<path fill="#08538C" d="M43,167.3H5c0,0,19.3-126.1,19.6-128c1.4-7.1,12.2-36.9,52.6-36.9c31.5,0,41.9,17.8,41.9,17.8
			s10-17.9,41.1-17.9c24.3,0,55.7,19.6,52.2,43.6c-3.8,25.5-18.4,121.4-18.4,121.4h-37.9c0,0,18.7-120,18.8-120.9
			c0.3-3.3,0.1-16-17.2-16c-16.9,0-20,11.9-20.3,13.4l-18.3,123.6H81.3c0,0,17.4-117.1,17.4-117.7c0-0.6,5-19.1-17.5-19.1
			c-0.3,0-17.6-0.2-19.9,16.1C59,62.8,43,167.3,43,167.3z"/>
		<path fill="#08538C" d="M194.1,167.3H232c0,0-18.9,126.1-19.3,128c-1.4,7.1-12.2,36.9-52.6,36.9c-31.5,0-41.9-17.8-41.9-17.8
			s-10,17.9-41.1,17.9c-24.3,0-55.7-19.6-52.2-43.6c3.8-25.5,18.1-121.5,18.1-121.5h38.2c0,0-18.7,120-18.8,120.9
			c-0.3,3.3-0.1,16,17.2,16c16.9,0,20-11.8,20.3-13.4l19.2-123.5h36.9c0,0-17.4,117.1-17.4,117.7c0,0.6-5,19.1,17.5,19.1
			c0.3,0,17.6,0.2,19.9-16.1C178.4,271.7,194.1,167.3,194.1,167.3z"/>
	</g>
	<g>
		<g>
			<path fill="#08538C" d="M235,136h-8.7l7.8-46.1h8.7L235,136z"/>
			<path fill="#08538C" d="M245.2,136l7.8-46.1h8.8c8.1,0,12.4,0.1,16.5,1.6c9.9,3.7,10.9,14.1,11.2,17.7c0.5,8.8-2.7,16.1-7.1,20.6
				c-6,6-12.5,6.1-20,6.2H245.2z M255.2,128.4h1.8c9.9-0.1,13.8-0.1,17.9-3.3c5.1-4.2,6-11.8,5.7-15.8c-0.3-4.4-1.7-7.7-4.6-9.7
				c-3.1-2.1-7.4-2.2-13.4-2.2h-2.2L255.2,128.4z"/>
			<path fill="#08538C" d="M292.8,136l7.8-46.1h8.8c8.1,0,12.4,0.1,16.5,1.6c9.9,3.7,10.9,14.1,11.2,17.7c0.5,8.8-2.7,16.1-7.1,20.6
				c-6,6-12.5,6.1-20,6.2H292.8z M302.8,128.4h1.8c9.9-0.1,13.8-0.1,17.9-3.3c5.1-4.2,6-11.8,5.7-15.8c-0.3-4.4-1.7-7.7-4.6-9.7
				c-3.1-2.1-7.4-2.2-13.4-2.2h-2.2L302.8,128.4z"/>
			<path fill="#08538C" d="M369,136h-28.5l7.8-46.2h8.7l-6.5,38.5h19.8L369,136z"/>
			<path fill="#08538C" d="M410.6,136h-34.8l7.8-46.1h31.3l-1.2,7.5h-22.9l-1.9,10.9h21.8l-1.2,7.4h-21.7l-2.1,12.9h26.2L410.6,136z
				"/>
			<path fill="#08538C" d="M431.2,114.8c-3.1-1.1-11-3.9-11.5-12c-0.4-7,5.6-13.7,16.5-13.7c8.2,0,14.5,3.6,17.4,9.6l-7.2,3.9
				c-1.5-3.7-5-6.1-10-6.1c-5.6,0-7.7,2.9-7.5,5.2c0.2,3.3,3.3,4.4,4.8,5c0.9,0.3,5.5,1.9,6.5,2.2c3.2,1.2,11.5,4.1,12.1,12.6
				c0.5,8.6-7.1,15.3-17.7,15.3c-4.6,0-9.2-1.3-12.5-3.5c-4.8-3.3-6.2-7.8-6.7-9.5l7.9-3.1c1.5,6.1,6.4,8.4,11.5,8.4
				c5.9,0,8.4-3.3,8.2-6.5c-0.2-3.7-3.7-5-6.6-6L431.2,114.8z"/>
			<path fill="#08538C" d="M492.3,136h-34.8l7.8-46.1h31.4l-1.2,7.5h-22.9l-1.9,10.9h21.8l-1.2,7.4h-21.7l-2.1,12.9h26.2L492.3,136z
				"/>
			<path fill="#08538C" d="M537.1,136h-9.7l-7.9-17.6L505.7,136h-10.4l20.4-24.9l-10.1-21.2h9.3l6.2,14.1l10.8-14.1h10.6L525,111.4
				L537.1,136z"/>
		</g>
		<g>
			<path fill="#08538C" d="M284.6,214.7h-8.7l-1.5-9.6h-16.8l-4.5,9.6h-9.5l23.5-46.2h9.7L284.6,214.7z M273.3,197.7l-2.8-20.5
				l-9.5,20.5H273.3z"/>
			<path fill="#08538C" d="M322.4,168.5l-1.3,7.6h-12l-6.5,38.6h-8.7l6.5-38.6h-13.2l1.3-7.6H322.4z"/>
			<path fill="#08538C" d="M355.2,214.7h-34.8l7.8-46.1h31.3l-1.2,7.5h-22.9l-1.9,10.9h21.7l-1.2,7.4h-21.7l-2.1,12.9h26.3
				L355.2,214.7z"/>
			<path fill="#08538C" d="M462.5,201.4c-3.1,10.5-11.6,14.2-19.9,14.2c-6.1,0-19.2-2.5-20.2-19.3c-0.8-12.1,4.5-28.7,22.5-28.7
				c6.7,0,10.5,2.2,12.6,3.9c5,4,5.7,9.3,6,11.7l-8.3,1.5c0-0.8-0.1-1.5-0.4-2.6c-1.3-5.9-6.1-7.1-9.4-7.1
				c-12.3,0-14.5,14.4-14.2,20.2c0.5,8.7,5.5,12.7,11.4,12.7c8.5,0,11.1-7.1,12.1-9.6L462.5,201.4z"/>
			<path fill="#08538C" d="M502.9,209.4c-5.4,5.5-11.9,6.3-15.9,6.3c-15.1,0-19.7-11.4-20.2-19.7c-0.7-11.3,4.6-28.4,23.1-28.4
				c14,0,19.8,10.4,20.4,19.7c0.2,2.5,0,5-0.4,7.4C508.8,200.6,506.4,205.8,502.9,209.4z M501.5,187c-0.4-6.7-4-12-11.5-12
				c-1.9,0-6.3,0.3-9.7,4.2c-3,3.5-5.2,10.6-4.9,16.4c0.5,8,5.3,12.2,11.6,12.2c11.5,0,13.5-12,14-14.8
				C501.5,191.1,501.7,189.1,501.5,187z"/>
			<path fill="#08538C" d="M559.4,214.7h-8.4l6.8-38.1l-18.3,38.1h-7.4l-5.2-38.1l-6,38.1h-8.4l7.8-46.1h12.6l4.4,34.8l17.2-34.8
				h12.7L559.4,214.7z"/>
			<path fill="#08538C" d="M575.7,214.7H567l7.8-46.2h12.5c5.4,0,8.5,0.1,11.4,1.3c4.7,2.1,7.2,6.5,7.5,11.5
				c0.3,4.8-1.4,10.1-5.4,13.5c-4.2,3.5-8.8,3.5-14.3,3.6h-8.2L575.7,214.7z M579.6,190.9h5c4.1,0,5.7-0.1,7.2-0.5
				c4.5-1.4,5.8-5.9,5.6-8.6c-0.1-0.9-0.4-2.7-1.9-4.1c-1.9-1.8-3.5-1.8-8.3-1.8h-5L579.6,190.9z"/>
			<path fill="#08538C" d="M639,214.7h-8.7l-1.5-9.6H612l-4.5,9.6H598l23.5-46.2h9.7L639,214.7z M627.8,197.7l-2.8-20.5l-9.5,20.5
				H627.8z"/>
			<path fill="#08538C" d="M680.8,214.7h-7.7l-16.2-33.8l-5.1,33.8h-8.4l7.8-46.1h7.8l16.2,34l5.1-34h8.3L680.8,214.7z"/>
			<path fill="#08538C" d="M710.6,214.7h-8.7l3.1-18.4l-11.3-27.8h9l7.5,20.4l13.2-20.4h10l-19.6,27.8L710.6,214.7z"/>
			<path fill="#08538C" d="M373.2,196.5l-3.1,18.1h-8.6l7.8-46c0,0,15.4,0,17.9,0c12.4,0,14.9,8.9,14.9,13.1
				c0,4.2-2.9,12.1-9.5,13.4c-0.3,0.1,3,0.6,4.5,4.2c0.6,1.3,0.8,1.9,0.7,3.6c-0.1,1.6-1,5.5-1,6.6c-0.1,1.7,0.2,4,1.1,5.1l-8.5,0.1
				c0,0-1.3-1.4-1.2-3.7c0.1-4,1.2-6,1.1-8c-0.2-2.5-0.7-6.4-5.1-6.4C384.1,196.5,373.2,196.5,373.2,196.5z M376.8,175.7l-2.5,14.1
				h9.8c0,0,9,0.3,8.9-7.3c-0.1-7.4-8.1-6.8-8.1-6.8H376.8z"/>
		</g>
	</g>
</g>
</svg>
